<mxfile host="app.diagrams.net" modified="2022-05-25T02:15:38.409Z" agent="5.0 (Macintosh; Intel Mac OS X 10_14_5) AppleWebKit/537.36 (KHTML, like Gecko) Chrome/100.0.4896.127 Safari/537.36" etag="lDkq1dj3MqPcqXsLzCBj" version="16.0.0" type="github">
  <diagram id="dm-N3E3-dyA2HahrKBCQ" name="Page-1">
    <mxGraphModel dx="917" dy="591" grid="1" gridSize="10" guides="1" tooltips="1" connect="1" arrows="1" fold="1" page="1" pageScale="1" pageWidth="827" pageHeight="1169" math="0" shadow="0">
      <root>
        <mxCell id="0" />
        <mxCell id="1" parent="0" />
      </root>
    </mxGraphModel>
  </diagram>
</mxfile>
